<svg width="17" height="18" fill="none" xmlns="http://www.w3.org/2000/svg"><g clip-path="url(#clip0_1_430)"><path d="M8.5 4.607a4.268 4.268 0 00-4.268 4.268A4.245 4.245 0 008.5 13.143a4.268 4.268 0 004.268-4.268c0-2.338-1.93-4.268-4.268-4.268zm0 7.051a2.78 2.78 0 01-2.783-2.783c0-1.521 1.224-2.746 2.783-2.746a2.74 2.74 0 012.746 2.746c0 1.559-1.225 2.783-2.746 2.783zm5.418-7.199a.998.998 0 00-1.002-1.002.998.998 0 00-1.002 1.002.998.998 0 001.002 1.002.998.998 0 001.002-1.002zm2.82 1.002c-.074-1.336-.37-2.524-1.336-3.488C14.438 1.008 13.25.71 11.914.637 10.541.562 6.422.562 5.05.637c-1.336.074-2.487.37-3.488 1.336C.596 2.937.299 4.125.225 5.46c-.075 1.373-.075 5.492 0 6.865.074 1.336.37 2.486 1.336 3.489 1.002.964 2.152 1.261 3.488 1.335 1.373.075 5.492.075 6.865 0 1.336-.074 2.524-.37 3.488-1.335.965-1.002 1.262-2.153 1.336-3.489.075-1.373.075-5.492 0-6.865zm-1.781 8.312c-.26.743-.854 1.3-1.559 1.596-1.113.446-3.71.334-4.898.334-1.225 0-3.822.112-4.898-.334a2.813 2.813 0 01-1.596-1.596c-.445-1.076-.334-3.673-.334-4.898 0-1.188-.111-3.785.334-4.898a2.862 2.862 0 011.596-1.559c1.076-.445 3.673-.334 4.898-.334 1.188 0 3.785-.111 4.898.334.706.26 1.262.853 1.559 1.559.445 1.113.334 3.71.334 4.898 0 1.225.111 3.822-.334 4.898z" fill="#fff"/></g><defs><clipPath id="clip0_1_430"><path fill="#fff" d="M0 0h17v18H0z"/></clipPath></defs></svg>