<svg width="119" height="35" fill="none" xmlns="http://www.w3.org/2000/svg"><path d="M35.02 28V7.636h8.034c1.544 0 2.86.295 3.947.885 1.088.584 1.916 1.396 2.486 2.436.577 1.034.865 2.228.865 3.58 0 1.352-.291 2.545-.875 3.58-.583 1.034-1.428 1.839-2.535 2.416-1.1.576-2.433.865-3.997.865h-5.121v-3.45h4.425c.828 0 1.51-.143 2.048-.428a2.834 2.834 0 001.213-1.203c.272-.517.408-1.11.408-1.78 0-.676-.136-1.266-.408-1.77a2.722 2.722 0 00-1.213-1.183c-.544-.285-1.233-.428-2.068-.428h-2.904V28H35.02zm21.994.288c-.974 0-1.843-.169-2.605-.507a4.193 4.193 0 01-1.81-1.521c-.437-.676-.656-1.518-.656-2.526 0-.848.156-1.56.468-2.137a3.785 3.785 0 011.272-1.393 6.175 6.175 0 011.83-.795c.69-.179 1.412-.305 2.167-.378a54.73 54.73 0 002.148-.258c.544-.086.938-.212 1.183-.378.246-.166.368-.411.368-.736v-.06c0-.63-.199-1.116-.596-1.461-.391-.345-.948-.517-1.67-.517-.763 0-1.37.169-1.82.507-.451.331-.75.749-.895 1.253l-3.918-.319c.199-.928.59-1.73 1.173-2.406.584-.683 1.336-1.206 2.258-1.57.928-.372 2.001-.558 3.221-.558.849 0 1.66.1 2.436.299a6.374 6.374 0 012.078.924c.61.418 1.09.955 1.442 1.611.351.65.527 1.429.527 2.337V28h-4.017v-2.118h-.12a4.31 4.31 0 01-.984 1.263 4.53 4.53 0 01-1.481.845c-.577.199-1.243.298-1.999.298zm1.213-2.923c.623 0 1.174-.123 1.65-.368.478-.252.853-.59 1.124-1.014.272-.424.408-.905.408-1.442v-1.62a2.272 2.272 0 01-.547.238 9.95 9.95 0 01-.765.189c-.285.053-.57.103-.855.15l-.776.108a5.248 5.248 0 00-1.303.348c-.37.16-.66.375-.865.647-.205.265-.308.596-.308.994 0 .577.209 1.018.627 1.323.424.298.96.447 1.61.447zm17.555 8.68c-1.372 0-2.549-.189-3.53-.566-.974-.371-1.75-.879-2.327-1.522a4.678 4.678 0 01-1.123-2.167l3.917-.527c.12.305.309.59.567.855.259.265.6.477 1.024.636.431.166.955.249 1.571.249.922 0 1.68-.226 2.277-.676.604-.444.905-1.19.905-2.238v-2.793h-.179a4.026 4.026 0 01-.835 1.203c-.371.377-.849.686-1.432.924-.583.239-1.28.358-2.088.358-1.147 0-2.19-.265-3.132-.795-.935-.537-1.68-1.356-2.237-2.456-.55-1.107-.825-2.506-.825-4.196 0-1.73.281-3.175.845-4.335.563-1.16 1.312-2.029 2.247-2.606a5.807 5.807 0 013.092-.865c.855 0 1.571.146 2.148.438.577.285 1.04.643 1.392 1.074.358.424.633.842.825 1.253h.16v-2.566h4.205V28.15c0 1.3-.318 2.386-.954 3.261-.637.875-1.518 1.532-2.645 1.97-1.12.443-2.41.665-3.868.665zm.09-9.446c.682 0 1.259-.169 1.73-.507.477-.344.841-.835 1.093-1.471.259-.643.388-1.412.388-2.307s-.126-1.67-.378-2.327c-.252-.663-.616-1.176-1.093-1.541-.478-.365-1.058-.547-1.74-.547-.697 0-1.283.19-1.76.567-.478.371-.839.888-1.084 1.551-.246.663-.368 1.428-.368 2.297 0 .881.122 1.644.368 2.287.252.636.613 1.13 1.084 1.481.477.345 1.063.517 1.76.517zm17.708 3.7c-1.57 0-2.923-.319-4.057-.955a6.538 6.538 0 01-2.605-2.725c-.61-1.18-.914-2.575-.914-4.186 0-1.57.304-2.95.914-4.136.61-1.187 1.469-2.111 2.576-2.774 1.113-.663 2.42-.995 3.917-.995 1.008 0 1.946.163 2.814.488a6.243 6.243 0 012.287 1.441c.656.643 1.167 1.452 1.531 2.427.365.967.547 2.1.547 3.4v1.163H87.694v-2.625h8.909c0-.61-.133-1.15-.398-1.62a2.85 2.85 0 00-1.103-1.104c-.465-.272-1.005-.408-1.621-.408-.643 0-1.213.15-1.71.448-.49.291-.875.686-1.154 1.183a3.343 3.343 0 00-.427 1.64v2.496c0 .756.139 1.409.417 1.96.285.55.686.974 1.203 1.272.517.298 1.13.447 1.84.447.47 0 .901-.066 1.292-.198a2.682 2.682 0 001.005-.597c.278-.265.49-.59.636-.975l3.918.259a5.35 5.35 0 01-1.223 2.466c-.61.696-1.399 1.24-2.367 1.63-.961.385-2.071.577-3.33.577zm22.482-11.217l-3.878.239a2 2 0 00-.428-.895 2.264 2.264 0 00-.865-.646c-.351-.166-.772-.249-1.262-.249-.657 0-1.21.14-1.661.418-.451.272-.676.636-.676 1.094 0 .364.146.672.437.924.292.252.793.454 1.502.607l2.764.557c1.485.305 2.592.795 3.321 1.471.729.676 1.094 1.565 1.094 2.665 0 1.001-.295 1.88-.885 2.635-.583.756-1.386 1.346-2.406 1.77-1.015.418-2.185.626-3.51.626-2.022 0-3.633-.42-4.833-1.262-1.193-.849-1.892-2.002-2.098-3.46l4.166-.22c.126.617.431 1.088.915 1.412.484.319 1.104.478 1.86.478.742 0 1.339-.143 1.789-.428.458-.292.69-.666.696-1.123-.006-.385-.169-.7-.487-.945-.318-.252-.809-.444-1.471-.577l-2.645-.527c-1.492-.298-2.602-.815-3.331-1.55-.723-.737-1.084-1.675-1.084-2.815 0-.98.265-1.826.795-2.535.537-.71 1.29-1.256 2.257-1.64.975-.385 2.115-.578 3.421-.578 1.929 0 3.447.408 4.554 1.223 1.114.816 1.763 1.926 1.949 3.331z" fill="#F5F8FC"/><path d="M3.563 25.4H24.5V3H3.506C1.572 3.006.006 4.587 0 6.54v20.65C0 29.256 1.605 31 3.506 31H24.5v-1.867H3.506c-.867 0-1.657-.925-1.657-1.942 0-.97.785-1.791 1.714-1.791zM5.547 4.886h5.547v10.081l-2.796-2.479-2.75 2.465V4.886zM1.85 6.554a1.674 1.674 0 011.657-1.687h2.041-1.85v12.6h1.828l2.779-2.489 2.807 2.489h1.831v-12.6h9.708v18.666H3.563c-.601 0-1.192.159-1.713.46V6.553z" fill="#FFCA42"/></svg>