<svg width="14" height="12" fill="none" xmlns="http://www.w3.org/2000/svg"><path d="M12.55 2.906a6.083 6.083 0 001.423-1.476 5.382 5.382 0 01-1.641.437A2.805 2.805 0 0013.59.281a6.063 6.063 0 01-1.805.711A2.871 2.871 0 009.68.09a2.87 2.87 0 00-2.871 2.87c0 .22.027.438.082.657A8.33 8.33 0 01.957.61c-.246.41-.383.903-.383 1.45 0 .984.492 1.859 1.285 2.378-.464-.027-.93-.136-1.312-.355v.027c0 1.395.984 2.543 2.297 2.817-.219.054-.492.11-.739.11-.19 0-.355-.028-.546-.056a2.857 2.857 0 002.68 1.997 5.772 5.772 0 01-3.555 1.23c-.247 0-.465-.027-.684-.055a8.004 8.004 0 004.402 1.286c5.278 0 8.149-4.348 8.149-8.149v-.383z" fill="#141414"/></svg>