<svg width="18" height="4" viewBox="0 0 18 4" fill="none" xmlns="http://www.w3.org/2000/svg">
<path d="M2 1C2.55229 1 3 1.44771 3 2C3 2.55228 2.55229 3 2 3C1.44771 3 1 2.55228 1 2C1 1.44771 1.44771 1 2 1Z" stroke="#FFCA42" stroke-width="1.5"/>
<path d="M9 1C9.55229 1 10 1.44771 10 2C10 2.55228 9.55229 3 9 3C8.44771 3 8 2.55228 8 2C8 1.44771 8.44771 1 9 1Z" stroke="#FFCA42" stroke-width="1.5"/>
<path d="M16 1C16.5523 1 17 1.44771 17 2C17 2.55228 16.5523 3 16 3C15.4477 3 15 2.55228 15 2C15 1.44771 15.4477 1 16 1Z" stroke="#FFCA42" stroke-width="1.5"/>
</svg>
